<svg width="360" height="200" viewBox="0 0 360 200" fill="none" xmlns="http://www.w3.org/2000/svg">
  <rect width="360" height="200" rx="8" fill="#1E2A38"/>
  <rect x="16" y="20" width="150" height="12" rx="3" fill="#FFFFFF"/>
  <rect x="16" y="40" width="132" height="8" rx="3" fill="#BCC8DD"/>
  <rect x="16" y="53" width="120" height="8" rx="3" fill="#BCC8DD"/>
  <rect x="230" y="20" width="74" height="9" rx="3" fill="#FFFFFF"/>
  <rect x="230" y="38" width="90" height="7" rx="3" fill="#BCC8DD"/>
  <rect x="230" y="50" width="64" height="7" rx="3" fill="#3B82F6"/>
  <line x1="16" y1="85" x2="344" y2="85" stroke="#556179"/>
  <rect x="16" y="100" width="82" height="8" rx="3" fill="#FFFFFF"/>
  <rect x="16" y="114" width="58" height="7" rx="3" fill="#BCC8DD"/>
  <rect x="78" y="114" width="58" height="7" rx="3" fill="#BCC8DD"/>
  <rect x="140" y="114" width="58" height="7" rx="3" fill="#BCC8DD"/>
  <rect x="206" y="100" width="82" height="8" rx="3" fill="#FFFFFF"/>
  <rect x="206" y="114" width="58" height="7" rx="3" fill="#BCC8DD"/>
  <rect x="268" y="114" width="58" height="7" rx="3" fill="#BCC8DD"/>
  <circle cx="318" cy="106" r="9" fill="#FFFFFF"/>
  <circle cx="338" cy="106" r="9" fill="#FFFFFF"/>
  <line x1="16" y1="152" x2="344" y2="152" stroke="#556179"/>
  <rect x="115" y="166" width="128" height="8" rx="3" fill="#BCC8DD"/>
  <text x="16" y="186" font-size="15" font-family="Arial, sans-serif" fill="#DDE6F7">Split Layout</text>
</svg>

