<svg width="360" height="200" viewBox="0 0 360 200" fill="none" xmlns="http://www.w3.org/2000/svg">
  <rect width="360" height="200" rx="8" fill="#1D232D"/>
  <rect x="16" y="18" width="140" height="12" rx="3" fill="#FFFFFF"/>
  <rect x="16" y="38" width="120" height="8" rx="3" fill="#B7C3DB"/>
  <rect x="16" y="51" width="108" height="8" rx="3" fill="#B7C3DB"/>
  <circle cx="25" cy="82" r="9" fill="#FFFFFF"/>
  <circle cx="50" cy="82" r="9" fill="#FFFFFF"/>
  <circle cx="75" cy="82" r="9" fill="#FFFFFF"/>
  <rect x="174" y="18" width="68" height="9" rx="3" fill="#FFFFFF"/>
  <rect x="174" y="36" width="60" height="7" rx="3" fill="#B7C3DB"/>
  <rect x="174" y="48" width="52" height="7" rx="3" fill="#B7C3DB"/>
  <rect x="174" y="60" width="58" height="7" rx="3" fill="#B7C3DB"/>
  <rect x="252" y="18" width="68" height="9" rx="3" fill="#FFFFFF"/>
  <rect x="252" y="36" width="60" height="7" rx="3" fill="#B7C3DB"/>
  <rect x="252" y="48" width="52" height="7" rx="3" fill="#B7C3DB"/>
  <rect x="252" y="60" width="58" height="7" rx="3" fill="#B7C3DB"/>
  <rect x="330" y="18" width="14" height="14" rx="7" fill="#FFFFFF"/>
  <line x1="16" y1="117" x2="344" y2="117" stroke="#4A556A"/>
  <rect x="113" y="136" width="134" height="8" rx="3" fill="#B7C3DB"/>
  <text x="16" y="186" font-size="15" font-family="Arial, sans-serif" fill="#DDE6F7">Signature Layout</text>
</svg>

