<svg width="360" height="200" viewBox="0 0 360 200" fill="none" xmlns="http://www.w3.org/2000/svg">
  <rect width="360" height="200" rx="8" fill="#222B39"/>
  <rect x="92" y="22" width="176" height="12" rx="3" fill="#FFFFFF"/>
  <rect x="102" y="41" width="156" height="8" rx="3" fill="#BCC8DD"/>
  <rect x="58" y="68" width="64" height="8" rx="3" fill="#DCE6F7"/>
  <rect x="128" y="68" width="64" height="8" rx="3" fill="#DCE6F7"/>
  <rect x="198" y="68" width="64" height="8" rx="3" fill="#DCE6F7"/>
  <rect x="268" y="68" width="34" height="8" rx="3" fill="#DCE6F7"/>
  <rect x="80" y="88" width="64" height="8" rx="3" fill="#BCC8DD"/>
  <rect x="150" y="88" width="64" height="8" rx="3" fill="#BCC8DD"/>
  <rect x="220" y="88" width="64" height="8" rx="3" fill="#BCC8DD"/>
  <circle cx="145" cy="118" r="10" fill="#FFFFFF"/>
  <circle cx="180" cy="118" r="10" fill="#FFFFFF"/>
  <circle cx="215" cy="118" r="10" fill="#FFFFFF"/>
  <rect x="145" y="141" width="70" height="8" rx="3" fill="#3B82F6"/>
  <line x1="16" y1="161" x2="344" y2="161" stroke="#556179"/>
  <rect x="116" y="174" width="126" height="8" rx="3" fill="#BCC8DD"/>
  <text x="16" y="186" font-size="15" font-family="Arial, sans-serif" fill="#DDE6F7">Minimal Layout</text>
</svg>

